<svg xmlns="http://www.w3.org/2000/svg" viewBox="0 0 512 512">
  <defs>
    <linearGradient id="grad" x1="0%" y1="0%" x2="100%" y2="100%">
      <stop offset="0%" style="stop-color:#8b5cf6;stop-opacity:1" />
      <stop offset="100%" style="stop-color:#ec4899;stop-opacity:1" />
    </linearGradient>
  </defs>

  <!-- Background circle -->
  <circle cx="256" cy="256" r="240" fill="url(#grad)"/>

  <!-- Book shape -->
  <g transform="translate(256,256)">
    <!-- Left page -->
    <path d="M -100,-80 L -100,100 L -10,90 L -10,-70 Z" fill="#ffffff" opacity="0.95"/>
    <!-- Right page -->
    <path d="M 10,-70 L 10,90 L 100,100 L 100,-80 Z" fill="#ffffff" opacity="0.95"/>
    <!-- Spine -->
    <rect x="-10" y="-80" width="20" height="180" fill="#ffffff" opacity="0.7"/>

    <!-- Text lines on left page -->
    <line x1="-85" y1="-50" x2="-25" y2="-50" stroke="#8b5cf6" stroke-width="4" stroke-linecap="round"/>
    <line x1="-85" y1="-20" x2="-25" y2="-20" stroke="#8b5cf6" stroke-width="4" stroke-linecap="round"/>
    <line x1="-85" y1="10" x2="-25" y2="10" stroke="#8b5cf6" stroke-width="4" stroke-linecap="round"/>
    <line x1="-85" y1="40" x2="-25" y2="40" stroke="#8b5cf6" stroke-width="4" stroke-linecap="round"/>

    <!-- Text lines on right page -->
    <line x1="25" y1="-50" x2="85" y2="-50" stroke="#ec4899" stroke-width="4" stroke-linecap="round"/>
    <line x1="25" y1="-20" x2="85" y2="-20" stroke="#ec4899" stroke-width="4" stroke-linecap="round"/>
    <line x1="25" y1="10" x2="85" y2="10" stroke="#ec4899" stroke-width="4" stroke-linecap="round"/>
    <line x1="25" y1="40" x2="85" y2="40" stroke="#ec4899" stroke-width="4" stroke-linecap="round"/>

    <!-- Star accent -->
    <circle cx="0" cy="70" r="15" fill="#fbbf24"/>
    <polygon points="0,60 3,68 12,68 5,73 8,82 0,76 -8,82 -5,73 -12,68 -3,68" fill="#ffffff"/>
  </g>
</svg>
